<svg xmlns="http://www.w3.org/2000/svg" viewBox="0 0 191.881 37.311"><defs><style>.a{fill:#ff6900;}.b{fill:#fff;}</style></defs><g transform="translate(-17.145 -17.145)"><path class="a" d="M45.417,24.364,54.123,35.29,51.014,48.97,38.4,55.011,25.785,48.97,22.676,35.379,31.47,24.364ZM38.4,19.3,23.12,26.673,19.3,43.285,29.871,56.61H46.838L57.41,43.285,53.59,26.673Zm2.043,19.366c1.51,0,2.4-.089,2.843-.533a1.357,1.357,0,0,0,.355-.888,1.14,1.14,0,0,0-.355-.888c-.355-.355-1.155-.444-2.843-.444H34.135v2.754Zm6.751,6.13H42.574l-4.442-3.731H34.224V44.8H30.937V33.158h9.594c3.465,0,4.708.444,5.508,1.244a3.738,3.738,0,0,1,.888,2.665,3.576,3.576,0,0,1-.977,2.665c-.622.622-1.6,1.066-3.553,1.244Z" transform="translate(-2.155 -2.155)"/><path class="b" d="M111.27,48.945h22.208V45.036H116.067V42.194h12.526V38.551H116.067V35.709h17.411V31.8H111.27Zm89.456-3.909V31.8H195.84V48.945h22.3V45.036H200.726ZM182.693,31.8h-7.2l-9.416,17.145h5.241l1.866-3.465h11.548l1.866,3.465h5.419Zm-7.551,10.038,3.82-7.2,3.82,7.2ZM95.813,39.884c2.221,0,3.553-.178,4.175-.8a1.932,1.932,0,0,0,0-2.665c-.533-.533-1.6-.622-4.175-.622H86.486v4.086h9.328Zm9.861,9.061h0l-6.84.089L92.26,43.526H86.486v5.508H81.6V31.8H95.725c5.152,0,6.929.622,8.173,1.866a5.4,5.4,0,0,1,1.333,3.909,5.238,5.238,0,0,1-1.421,3.909c-.977.977-2.4,1.6-5.33,1.866Zm42.2-3.82c-2.043,0-2.932-.355-3.642-.888a4.754,4.754,0,0,1-1.51-3.82,4.754,4.754,0,0,1,1.51-3.82c.711-.533,1.6-.888,3.642-.888h14.036V31.8H147.87c-4.086,0-5.685.444-7.2,1.688a8.342,8.342,0,0,0-2.843,6.84,8.342,8.342,0,0,0,2.843,6.84c1.51,1.333,3.109,1.688,7.2,1.688h14.036v-10.3H149.913v3.642h7.107v2.843h-9.15Z" transform="translate(-9.112 -3.551)"/></g></svg>